<?xml version="1.0" encoding="UTF-8"?>
<svg xmlns="http://www.w3.org/2000/svg" viewBox="0 0 512 512" width="512" height="512" preserveAspectRatio="xMidYMid meet" style="width: 100%; height: 100%; transform: translate3d(0px, 0px, 0px); content-visibility: visible;"><defs><clipPath id="__lottie_element_2"><rect width="512" height="512" x="0" y="0"></rect></clipPath></defs><g clip-path="url(#__lottie_element_2)"><g transform="matrix(1,0,0,1,0,0)" opacity="1" style="display: block;"><g opacity="1" transform="matrix(1,0,0,1,256.01300048828125,255.9949951171875)"><path fill="rgb(0,0,0)" fill-opacity="1" d=" M-0.013000000268220901,127.66300201416016 C-70.51699829101562,127.65399932861328 -127.66400146484375,70.49199676513672 -127.65499877929688,-0.012000000104308128 C-127.6449966430664,-70.51599884033203 -70.48300170898438,-127.66300201416016 0.020999999716877937,-127.65399932861328 C70.51799774169922,-127.64399719238281 127.66300201416016,-70.49199676513672 127.66300201416016,0.004999999888241291 C127.57599639892578,70.4800033569336 70.46199798583984,127.58699798583984 -0.013000000268220901,127.66300201416016z M-0.013000000268220901,-120.8270034790039 C-66.74700164794922,-120.81800079345703 -120.83699798583984,-66.71199798583984 -120.8280029296875,0.02199999988079071 C-120.81900024414062,66.75599670410156 -66.71299743652344,120.84700012207031 0.020999999716877937,120.83699798583984 C66.74800109863281,120.8270034790039 120.83599853515625,66.73200225830078 120.83599853515625,0.004999999888241291 C120.75199890136719,-66.69999694824219 66.69200134277344,-120.75199890136719 -0.013000000268220901,-120.8270034790039z"></path></g></g><g transform="matrix(-0.004438222851604223,-0.9999901652336121,0.9999901652336121,-0.004438222851604223,1.138702392578125,513.1336669921875)" opacity="1" style="display: block;"><g opacity="1" transform="matrix(1,0,0,1,255.98800659179688,255.99899291992188)">
<path fill="rgb(0,0,0)" fill-opacity="1" d=" M24.833999633789062,221.86700439453125 C24.833999633789062,221.86700439453125 -24.809999465942383,221.86700439453125 -24.809999465942383,221.86700439453125 C-26.45599937438965,221.86700439453125 -27.867000579833984,220.6909942626953 -28.166000366210938,219.07200622558594 C-28.166000366210938,219.07200622558594 -37.040000915527344,170.97500610351562 -37.040000915527344,170.97500610351562 C-57.53499984741211,166.56199645996094 -77.05999755859375,158.46600341796875 -94.66400146484375,147.08099365234375 C-94.66400146484375,147.08099365234375 -134.9709930419922,174.8419952392578 -134.9709930419922,174.8419952392578 C-136.3280029296875,175.77699279785156 -138.16000366210938,175.60899353027344 -139.32400512695312,174.44200134277344 C-139.32400512695312,174.44200134277344 -174.41000366210938,139.33299255371094 -174.41000366210938,139.33299255371094 C-175.5749969482422,138.16799926757812 -175.74099731445312,136.33700561523438 -174.80599975585938,134.9810028076172 C-174.80599975585938,134.9810028076172 -147.0449981689453,94.677001953125 -147.0449981689453,94.677001953125 C-158.4320068359375,77.0719985961914 -166.5290069580078,57.547000885009766 -170.93899536132812,37.04999923706055 C-170.93899536132812,37.04999923706055 -219.03900146484375,28.174999237060547 -219.03900146484375,28.174999237060547 C-220.6649932861328,27.88599967956543 -221.8509979248047,26.475000381469727 -221.85499572753906,24.822999954223633 C-221.85499572753906,24.822999954223633 -221.85499572753906,-24.820999145507812 -221.85499572753906,-24.820999145507812 C-221.8560028076172,-26.468000411987305 -220.67999267578125,-27.881000518798828 -219.05999755859375,-28.18000030517578 C-219.05999755859375,-28.18000030517578 -170.95899963378906,-37.05400085449219 -170.95899963378906,-37.05400085449219 C-166.54800415039062,-57.551998138427734 -158.45199584960938,-77.08000183105469 -147.0659942626953,-94.68599700927734 C-147.0659942626953,-94.68599700927734 -174.82000732421875,-134.97999572753906 -174.82000732421875,-134.97999572753906 C-175.7519989013672,-136.33799743652344 -175.57899475097656,-138.1699981689453 -174.41000366210938,-139.33099365234375 C-174.41000366210938,-139.33099365234375 -139.32000732421875,-174.4199981689453 -139.32000732421875,-174.4199981689453 C-138.15499877929688,-175.58599853515625 -136.3260040283203,-175.75399780273438 -134.968994140625,-174.82000732421875 C-134.968994140625,-174.82000732421875 -94.66100311279297,-147.0590057373047 -94.66100311279297,-147.0590057373047 C-77.05699920654297,-158.4459991455078 -57.53300094604492,-166.54200744628906 -37.0369987487793,-170.9530029296875 C-37.0369987487793,-170.9530029296875 -28.16200065612793,-219.0500030517578 -28.16200065612793,-219.0500030517578 C-27.87299919128418,-220.67599487304688 -26.461999893188477,-221.86199951171875 -24.809999465942383,-221.86700439453125 C-24.809999465942383,-221.86700439453125 24.833999633789062,-221.86700439453125 24.833999633789062,-221.86700439453125 C26.479000091552734,-221.86599731445312 27.889999389648438,-220.68899536132812 28.187999725341797,-219.07000732421875 C28.187999725341797,-219.07000732421875 37.0629997253418,-170.97300720214844 37.0629997253418,-170.97300720214844 C57.558998107910156,-166.56300354003906 77.08399963378906,-158.46600341796875 94.68699645996094,-147.0800018310547 C94.68699645996094,-147.0800018310547 134.9949951171875,-174.83999633789062 134.9949951171875,-174.83999633789062 C136.3520050048828,-175.77499389648438 138.18299865722656,-175.60699462890625 139.3470001220703,-174.4409942626953 C139.3470001220703,-174.4409942626953 174.43299865722656,-139.33099365234375 174.43299865722656,-139.33099365234375 C175.5989990234375,-138.16700744628906 175.76699829101562,-136.33599853515625 174.83200073242188,-134.97999572753906 C174.83200073242188,-134.97999572753906 147.0679931640625,-94.67500305175781 147.0679931640625,-94.67500305175781 C158.45399475097656,-77.06800079345703 166.5500030517578,-57.54199981689453 170.96200561523438,-37.04399871826172 C170.96200561523438,-37.04399871826172 219.05799865722656,-28.16900062561035 219.05799865722656,-28.16900062561035 C220.6790008544922,-27.871000289916992 221.8560028076172,-26.45800018310547 221.85499572753906,-24.81100082397461 C221.85499572753906,-24.81100082397461 221.85499572753906,24.822999954223633 221.85499572753906,24.822999954223633 C221.8560028076172,26.47100067138672 220.6790008544922,27.882999420166016 219.05799865722656,28.18199920654297 C219.05799865722656,28.18199920654297 170.96200561523438,37.05500030517578 170.96200561523438,37.05500030517578 C166.5500030517578,57.551998138427734 158.45399475097656,77.0770034790039 147.0679931640625,94.68299865722656 C147.0679931640625,94.68299865722656 174.83200073242188,134.98800659179688 174.83200073242188,134.98800659179688 C175.76699829101562,136.34500122070312 175.5989990234375,138.1750030517578 174.43299865722656,139.33900451660156 C174.43299865722656,139.33900451660156 139.343994140625,174.4219970703125 139.343994140625,174.4219970703125 C138.1790008544922,175.58900451660156 136.3489990234375,175.7570037841797 134.9929962158203,174.8209991455078 C134.9929962158203,174.8209991455078 94.68299865722656,147.06100463867188 94.68299865722656,147.06100463867188 C77.0790023803711,158.44500732421875 57.555999755859375,166.54100036621094 37.06100082397461,170.95399475097656 C37.06100082397461,170.95399475097656 28.184999465942383,219.05099487304688 28.184999465942383,219.05099487304688 C27.895999908447266,220.677001953125 26.485000610351562,221.86300659179688 24.833999633789062,221.86700439453125z M-21.966999053955078,215.04100036621094 C-21.966999053955078,215.04100036621094 21.989999771118164,215.04100036621094 21.989999771118164,215.04100036621094 C21.989999771118164,215.04100036621094 30.759000778198242,167.48199462890625 30.759000778198242,167.48199462890625 C31.01099967956543,166.10800170898438 32.073001861572266,165.0279998779297 33.44200134277344,164.7519989013672 C54.6510009765625,160.47900390625 74.82499694824219,152.11300659179688 92.83399963378906,140.1219940185547 C93.99600219726562,139.3489990234375 95.51100158691406,139.36099243164062 96.66000366210938,140.15199279785156 C96.66000366210938,140.15199279785156 136.51400756835938,167.59800720214844 136.51400756835938,167.59800720214844 C136.51400756835938,167.59800720214844 167.5989990234375,136.51400756835938 167.5989990234375,136.51400756835938 C167.5989990234375,136.51400756835938 140.1490020751953,96.66000366210938 140.1490020751953,96.66000366210938 C139.35899353027344,95.51100158691406 139.3470001220703,93.99800109863281 140.11900329589844,92.83699798583984 C152.11199951171875,74.8280029296875 160.48199462890625,54.654998779296875 164.7570037841797,33.444000244140625 C165.03399658203125,32.07699966430664 166.11399841308594,31.017000198364258 167.48699951171875,30.766000747680664 C167.48699951171875,30.766000747680664 215.052001953125,21.98200035095215 215.052001953125,21.98200035095215 C215.052001953125,21.98200035095215 215.052001953125,-21.981000900268555 215.052001953125,-21.981000900268555 C215.052001953125,-21.981000900268555 167.49400329589844,-30.746999740600586 167.49400329589844,-30.746999740600586 C166.12100219726562,-30.99799919128418 165.0399932861328,-32.058998107910156 164.76199340820312,-33.42599868774414 C160.48699951171875,-54.63600158691406 152.11900329589844,-74.80899810791016 140.12600708007812,-92.81800079345703 C139.35400390625,-93.97899627685547 139.36599731445312,-95.49199676513672 140.156005859375,-96.64099884033203 C140.156005859375,-96.64099884033203 167.6060028076172,-136.51199340820312 167.6060028076172,-136.51199340820312 C167.6060028076172,-136.51199340820312 136.5240020751953,-167.593994140625 136.5240020751953,-167.593994140625 C136.5240020751953,-167.593994140625 96.6709976196289,-140.14700317382812 96.6709976196289,-140.14700317382812 C95.52100372314453,-139.3560028076172 94.00599670410156,-139.34500122070312 92.84400177001953,-140.11700439453125 C74.83599853515625,-152.11099243164062 54.6619987487793,-160.47799682617188 33.45199966430664,-164.75100708007812 C32.08399963378906,-165.0260009765625 31.020000457763672,-166.10800170898438 30.768999099731445,-167.4810028076172 C30.768999099731445,-167.4810028076172 21.989999771118164,-215.03900146484375 21.989999771118164,-215.03900146484375 C21.989999771118164,-215.03900146484375 -21.966999053955078,-215.03900146484375 -21.966999053955078,-215.03900146484375 C-21.966999053955078,-215.03900146484375 -30.736000061035156,-167.4810028076172 -30.736000061035156,-167.4810028076172 C-30.988000869750977,-166.10800170898438 -32.04999923706055,-165.0260009765625 -33.41899871826172,-164.75100708007812 C-54.63600158691406,-160.47999572753906 -74.81700134277344,-152.11300659179688 -92.83100128173828,-140.11700439453125 C-93.99299621582031,-139.34500122070312 -95.50800323486328,-139.3560028076172 -96.65699768066406,-140.14700317382812 C-96.65699768066406,-140.14700317382812 -136.50100708007812,-167.593994140625 -136.50100708007812,-167.593994140625 C-136.50100708007812,-167.593994140625 -167.58299255371094,-136.51199340820312 -167.58299255371094,-136.51199340820312 C-167.58299255371094,-136.51199340820312 -140.13299560546875,-96.65799713134766 -140.13299560546875,-96.65799713134766 C-139.34300231933594,-95.50900268554688 -139.33099365234375,-93.99700164794922 -140.1020050048828,-92.83599853515625 C-152.09500122070312,-74.8280029296875 -160.46299743652344,-54.65299987792969 -164.73699951171875,-33.44300079345703 C-165.01300048828125,-32.07600021362305 -166.09500122070312,-31.014999389648438 -167.4669952392578,-30.763999938964844 C-167.4669952392578,-30.763999938964844 -215.0290069580078,-21.981000900268555 -215.0290069580078,-21.981000900268555 C-215.0290069580078,-21.981000900268555 -215.0290069580078,21.98200035095215 -215.0290069580078,21.98200035095215 C-215.0290069580078,21.98200035095215 -167.4669952392578,30.75200080871582 -167.4669952392578,30.75200080871582 C-166.09500122070312,31.003000259399414 -165.01300048828125,32.0629997253418 -164.73699951171875,33.430999755859375 C-160.46299743652344,54.641998291015625 -152.0959930419922,74.81500244140625 -140.1020050048828,92.822998046875 C-139.33099365234375,93.98400115966797 -139.34300231933594,95.49700164794922 -140.13299560546875,96.64600372314453 C-140.13299560546875,96.64600372314453 -167.58299255371094,136.51400756835938 -167.58299255371094,136.51400756835938 C-167.58299255371094,136.51400756835938 -136.4969940185547,167.59800720214844 -136.4969940185547,167.59800720214844 C-136.4969940185547,167.59800720214844 -96.63999938964844,140.15199279785156 -96.63999938964844,140.15199279785156 C-95.49199676513672,139.36199951171875 -93.97899627685547,139.3509979248047 -92.81800079345703,140.1219940185547 C-74.80899810791016,152.11300659179688 -54.6349983215332,160.47900390625 -33.42499923706055,164.7519989013672 C-32.05699920654297,165.0279998779297 -30.993999481201172,166.10800170898438 -30.742000579833984,167.48199462890625 C-30.742000579833984,167.48199462890625 -21.966999053955078,215.04100036621094 -21.966999053955078,215.04100036621094z"></path>
</g></g><g transform="matrix(1,0,0,1,0,0)" opacity="1" style="display: block;"><g opacity="1" transform="matrix(1,0,0,1,194.82400512695312,282.7229919433594)"><path fill="rgb(0,0,0)" fill-opacity="1" d=" M12.086000442504883,36.180999755859375 C12.086000442504883,36.180999755859375 -12.083999633789062,36.180999755859375 -12.083999633789062,36.180999755859375 C-13.970000267028809,36.180999755859375 -15.498000144958496,34.65299987792969 -15.498000144958496,32.768001556396484 C-15.498000144958496,32.768001556396484 -15.498000144958496,-30.137693405151367 -15.498000144958496,-30.137693405151367 C-15.498000144958496,-32.0226936340332 -13.970000267028809,-33.55069351196289 -12.083999633789062,-33.55069351196289 C-12.083999633789062,-33.55069351196289 12.086000442504883,-33.55069351196289 12.086000442504883,-33.55069351196289 C13.970000267028809,-33.55069351196289 15.49899959564209,-32.0226936340332 15.49899959564209,-30.137693405151367 C15.49899959564209,-30.137693405151367 15.49899959564209,32.768001556396484 15.49899959564209,32.768001556396484 C15.49899959564209,34.65299987792969 13.970000267028809,36.180999755859375 12.086000442504883,36.180999755859375z M-8.670999526977539,29.354999542236328 C-8.670999526977539,29.354999542236328 8.67199993133545,29.354999542236328 8.67199993133545,29.354999542236328 C8.67199993133545,29.354999542236328 8.67199993133545,-26.724693298339844 8.67199993133545,-26.724693298339844 C8.67199993133545,-26.724693298339844 -8.670999526977539,-26.724693298339844 -8.670999526977539,-26.724693298339844 C-8.670999526977539,-26.724693298339844 -8.670999526977539,29.354999542236328 -8.670999526977539,29.354999542236328z"></path></g></g><g transform="matrix(1,0,0,1,0,0)" opacity="1" style="display: block;"><g opacity="1" transform="matrix(1,0,0,1,235.60699462890625,263.739990234375)"><path fill="rgb(0,0,0)" fill-opacity="1" d=" M12.085000038146973,55.16400146484375 C12.085000038146973,55.16400146484375 -12.085000038146973,55.16400146484375 -12.085000038146973,55.16400146484375 C-13.970000267028809,55.16400146484375 -15.498000144958496,53.63600158691406 -15.498000144958496,51.750999450683594 C-15.498000144958496,51.750999450683594 -15.498000144958496,-51.59463119506836 -15.498000144958496,-51.59463119506836 C-15.498000144958496,-53.47863006591797 -13.970000267028809,-55.00762939453125 -12.085000038146973,-55.00762939453125 C-12.085000038146973,-55.00762939453125 12.085000038146973,-55.00762939453125 12.085000038146973,-55.00762939453125 C13.970000267028809,-55.00762939453125 15.498000144958496,-53.47863006591797 15.498000144958496,-51.59463119506836 C15.498000144958496,-51.59463119506836 15.498000144958496,51.750999450683594 15.498000144958496,51.750999450683594 C15.498000144958496,53.63600158691406 13.970000267028809,55.16400146484375 12.085000038146973,55.16400146484375z M-8.670999526977539,48.3390007019043 C-8.670999526977539,48.3390007019043 8.67199993133545,48.3390007019043 8.67199993133545,48.3390007019043 C8.67199993133545,48.3390007019043 8.67199993133545,-48.18062973022461 8.67199993133545,-48.18062973022461 C8.67199993133545,-48.18062973022461 -8.670999526977539,-48.18062973022461 -8.670999526977539,-48.18062973022461 C-8.670999526977539,-48.18062973022461 -8.670999526977539,48.3390007019043 -8.670999526977539,48.3390007019043z"></path></g></g><g transform="matrix(1,0,0,1,0,0)" opacity="1" style="display: block;"><g opacity="1" transform="matrix(1,0,0,1,276.39300537109375,277.3550109863281)"><path fill="rgb(0,0,0)" fill-opacity="1" d=" M12.085000038146973,41.54800033569336 C12.085000038146973,41.54800033569336 -12.085000038146973,41.54800033569336 -12.085000038146973,41.54800033569336 C-13.970000267028809,41.54800033569336 -15.49899959564209,40.02000045776367 -15.49899959564209,38.1349983215332 C-15.49899959564209,38.1349983215332 -15.49899959564209,-38.55923843383789 -15.49899959564209,-38.55923843383789 C-15.49899959564209,-40.444236755371094 -13.970000267028809,-41.97223663330078 -12.085000038146973,-41.97223663330078 C-12.085000038146973,-41.97223663330078 12.085000038146973,-41.97223663330078 12.085000038146973,-41.97223663330078 C13.970000267028809,-41.97223663330078 15.49899959564209,-40.444236755371094 15.49899959564209,-38.55923843383789 C15.49899959564209,-38.55923843383789 15.49899959564209,38.1349983215332 15.49899959564209,38.1349983215332 C15.49899959564209,40.02000045776367 13.970000267028809,41.54800033569336 12.085000038146973,41.54800033569336z M-8.67199993133545,34.722999572753906 C-8.67199993133545,34.722999572753906 8.670999526977539,34.722999572753906 8.670999526977539,34.722999572753906 C8.670999526977539,34.722999572753906 8.670999526977539,-35.147239685058594 8.670999526977539,-35.147239685058594 C8.670999526977539,-35.147239685058594 -8.67199993133545,-35.147239685058594 -8.67199993133545,-35.147239685058594 C-8.67199993133545,-35.147239685058594 -8.67199993133545,34.722999572753906 -8.67199993133545,34.722999572753906z"></path></g></g><g transform="matrix(1,0,0,1,0,0)" opacity="1" style="display: block;"><g opacity="1" transform="matrix(1,0,0,1,317.1759948730469,273.3909912109375)"><path fill="rgb(0,0,0)" fill-opacity="1" d=" M12.085000038146973,45.51300048828125 C12.085000038146973,45.51300048828125 -12.085000038146973,45.51300048828125 -12.085000038146973,45.51300048828125 C-13.970999717712402,45.51300048828125 -15.49899959564209,43.98500061035156 -15.49899959564209,42.099998474121094 C-15.49899959564209,42.099998474121094 -15.49899959564209,-42.22560501098633 -15.49899959564209,-42.22560501098633 C-15.49899959564209,-44.1106071472168 -13.970999717712402,-45.638607025146484 -12.085000038146973,-45.638607025146484 C-12.085000038146973,-45.638607025146484 12.085000038146973,-45.638607025146484 12.085000038146973,-45.638607025146484 C13.970000267028809,-45.638607025146484 15.49899959564209,-44.1106071472168 15.49899959564209,-42.22560501098633 C15.49899959564209,-42.22560501098633 15.49899959564209,42.099998474121094 15.49899959564209,42.099998474121094 C15.49899959564209,43.98500061035156 13.970000267028809,45.51300048828125 12.085000038146973,45.51300048828125z M-8.67199993133545,38.6879997253418 C-8.67199993133545,38.6879997253418 8.670999526977539,38.6879997253418 8.670999526977539,38.6879997253418 C8.670999526977539,38.6879997253418 8.670999526977539,-38.811607360839844 8.670999526977539,-38.811607360839844 C8.670999526977539,-38.811607360839844 -8.67199993133545,-38.811607360839844 -8.67199993133545,-38.811607360839844 C-8.67199993133545,-38.811607360839844 -8.67199993133545,38.6879997253418 -8.67199993133545,38.6879997253418z"></path></g></g><g transform="matrix(1,0,0,1,0,0)" opacity="1" style="display: block;"><g opacity="1" transform="matrix(1,0,0,1,256,315.4909973144531)"><path fill="rgb(0,0,0)" fill-opacity="1" d=" M83.50399780273438,3.4130001068115234 C83.50399780273438,3.4130001068115234 -83.50399780273438,3.4130001068115234 -83.50399780273438,3.4130001068115234 C-85.38899993896484,3.4130001068115234 -86.91699981689453,1.8849999904632568 -86.91699981689453,0 C-86.91699981689453,-1.8860000371932983 -85.38899993896484,-3.4130001068115234 -83.50399780273438,-3.4130001068115234 C-83.50399780273438,-3.4130001068115234 83.50399780273438,-3.4130001068115234 83.50399780273438,-3.4130001068115234 C85.38899993896484,-3.4130001068115234 86.91699981689453,-1.8860000371932983 86.91699981689453,0 C86.91699981689453,1.8849999904632568 85.38899993896484,3.4130001068115234 83.50399780273438,3.4130001068115234z"></path></g></g><g transform="matrix(1,0,0,1,0,0)" opacity="1" style="display: block;"><g opacity="1" transform="matrix(1,0,0,1,256.82598876953125,200.37100219726562)"><path fill="rgb(0,0,0)" fill-opacity="1" d=" M13.217000007629395,13.968999862670898 C12.477999687194824,13.970000267028809 10.041000366210938,13.105999946594238 9.451000213623047,12.66100025177002 C9.451000213623047,12.66100025177002 -17.066999435424805,-8.241000175476074 -17.066999435424805,-8.241000175476074 C-18.636999130249023,-9.28499984741211 -19.062999725341797,-11.404000282287598 -18.018999099731445,-12.973999977111816 C-16.975000381469727,-14.543999671936035 -14.857000350952148,-14.970000267028809 -13.286999702453613,-13.927000045776367 C-13.182999610900879,-13.857999801635742 -13.083000183105469,-13.782999992370605 -12.98799991607666,-13.70300006866455 C-12.98799991607666,-13.70300006866455 13.529000282287598,7.199999809265137 13.529000282287598,7.199999809265137 C15.038000106811523,8.331000328063965 15.343999862670898,10.470000267028809 14.211999893188477,11.979000091552734 C13.567000389099121,12.838000297546387 12.555999755859375,13.343999862670898 11.480999946594238,13.343999862670898 C11.480999946594238,13.343999862670898 13.217000007629395,13.968999862670898 13.217000007629395,13.968999862670898z"></path></g></g><g transform="matrix(1,0,0,1,0,0)" opacity="1" style="display: block;"><g opacity="1" transform="matrix(1,0,0,1,297.3349914550781,211.25799560546875)"><path fill="rgb(0,0,0)" fill-opacity="1" d=" M-11.623931884765625,6.803969383239746 C-13.50086498260498,6.850879192352295 -15.060829162597656,5.367069244384766 -15.106870651245117,3.4901371002197266 C-15.145381927490234,1.9726839065551758 -14.172893524169922,0.6148290634155273 -12.724896430969238,0.1614919900894165 C-12.724896430969238,0.1614919900894165 10.55755615234375,-7.316330432891846 10.55755615234375,-7.316330432891846 C12.365974426269531,-7.8209333419799805 14.240829467773438,-6.762943267822266 14.745498657226562,-4.953525543212891 C15.226183891296387,-3.230247974395752 14.28801155090332,-1.428905963897705 12.60024642944336,-0.8334769606590271 C12.60024642944336,-0.8334769606590271 -10.682140350341797,6.645411491394043 -10.682140350341797,6.645411491394043 C-10.986701965332031,6.743222713470459 -11.3043212890625,6.796430587768555 -11.623931884765625,6.803969383239746z"></path></g></g><g transform="matrix(1,0,0,1,0,0)" opacity="1" style="display: block;"><g opacity="1" transform="matrix(1,0,0,1,215.4550018310547,200.5500030517578)"><path fill="rgb(0,0,0)" fill-opacity="1" d=" M-14.543000221252441,14.892999649047852 C-16.42799949645996,14.894000053405762 -17.95800018310547,13.366999626159668 -17.958999633789062,11.482000350952148 C-17.959999084472656,10.4350004196167 -17.479000091552734,9.444000244140625 -16.6560001373291,8.79699993133545 C-16.6560001373291,8.79699993133545 11.968000411987305,-13.704000473022461 11.968000411987305,-13.704000473022461 C13.430999755859375,-14.894000053405762 15.581000328063965,-14.67300033569336 16.770000457763672,-13.211000442504883 C17.959999084472656,-11.74899959564209 17.739999771118164,-9.598999977111816 16.277000427246094,-8.409000396728516 C16.24799919128418,-8.385000228881836 16.218000411987305,-8.361000061035156 16.187000274658203,-8.338000297546387 C16.187000274658203,-8.338000297546387 -12.434000015258789,14.166000366210938 -12.434000015258789,14.166000366210938 C-13.03499984741211,14.637999534606934 -13.777999877929688,14.892999649047852 -14.543000221252441,14.892999649047852z"></path></g></g><g transform="matrix(1,0,0,1,0,-1.09112548828125)" opacity="1" style="display: block;"><g opacity="1" transform="matrix(1,0,0,1,316.3299865722656,205.80299377441406)"><path fill="rgb(0,0,0)" fill-opacity="1" d=" M0.004000000189989805,11.17199993133545 C-6.165999889373779,11.17300033569336 -11.168999671936035,6.172999858856201 -11.170999526977539,0.003000000026077032 C-11.17300033569336,-6.166999816894531 -6.172999858856201,-11.170000076293945 -0.003000000026077032,-11.17199993133545 C6.166999816894531,-11.173999786376953 11.170999526977539,-6.173999786376953 11.17300033569336,-0.004000000189989805 C11.17300033569336,-0.004000000189989805 11.17300033569336,0 11.17300033569336,0 C11.164999961853027,6.164999961853027 6.170000076293945,11.161999702453613 0.004000000189989805,11.17199993133545z M0.004000000189989805,-4.3420000076293945 C-2.3949999809265137,-4.343999862670898 -4.3429999351501465,-2.4000000953674316 -4.34499979019165,0 C-4.3470001220703125,2.3989999294281006 -2.4019999504089355,4.3460001945495605 -0.003000000026077032,4.3480000495910645 C2.3980000019073486,4.349999904632568 4.343999862670898,2.4070000648498535 4.3460001945495605,0.00800000037997961 C4.3460001945495605,0.00800000037997961 4.3460001945495605,0 4.3460001945495605,0 C4.3420000076293945,-2.3970000743865967 2.4000000953674316,-4.339000225067139 0.004000000189989805,-4.3420000076293945z"></path></g></g><g transform="matrix(1,0,0,1,0,0)" opacity="1" style="display: block;"><g opacity="1" transform="matrix(1,0,0,1,235.61500549316406,184.75599670410156)"><path fill="rgb(0,0,0)" fill-opacity="1" d=" M-0.003000000026077032,11.168999671936035 C-6.171000003814697,11.166999816894531 -11.170000076293945,6.165999889373779 -11.168000221252441,-0.003000000026077032 C-11.166000366210938,-6.171000003814697 -6.164999961853027,-11.170000076293945 0.004000000189989805,-11.168000221252441 C6.168000221252441,-11.166000366210938 11.164999961853027,-6.169000148773193 11.168999671936035,-0.004999999888241291 C11.164999961853027,6.164000034332275 6.165999889373779,11.163999557495117 -0.003000000026077032,11.168999671936035z M-0.003000000026077032,-4.341000080108643 C-2.4010000228881836,-4.339000225067139 -4.3429999351501465,-2.3940000534057617 -4.341000080108643,0.004000000189989805 C-4.339000225067139,2.4019999504089355 -2.3940000534057617,4.3460001945495605 0.004000000189989805,4.343999862670898 C2.4019999504089355,4.3420000076293945 4.343999862670898,2.3949999809265137 4.3420000076293945,-0.003000000026077032 C4.3420000076293945,-0.003000000026077032 4.3420000076293945,-0.004999999888241291 4.3420000076293945,-0.004999999888241291 C4.3379998207092285,-2.4030001163482666 2.3940000534057617,-4.3460001945495605 -0.003000000026077032,-4.3480000495910645 C-0.003000000026077032,-4.3480000495910645 -0.003000000026077032,-4.341000080108643 -0.003000000026077032,-4.341000080108643z"></path></g></g><g transform="matrix(1,0,0,1,0,0)" opacity="1" style="display: block;"><g opacity="1" transform="matrix(1,0,0,1,194.8300018310547,216.80799865722656)"><path fill="rgb(0,0,0)" fill-opacity="1" d=" M0,11.168999671936035 C-6.168000221252441,11.168999671936035 -11.168000221252441,6.169000148773193 -11.168000221252441,0.0010000000474974513 C-11.168000221252441,-6.166999816894531 -6.168000221252441,-11.168999671936035 0,-11.168999671936035 C6.168000221252441,-11.168999671936035 11.168000221252441,-6.166999816894531 11.168000221252441,0.0010000000474974513 C11.163000106811523,6.166999816894531 6.165999889373779,11.163000106811523 0,11.168999671936035z M0,-4.3420000076293945 C-2.3980000019073486,-4.3420000076293945 -4.3420000076293945,-2.3970000743865967 -4.3420000076293945,0.0010000000474974513 C-4.3420000076293945,2.3989999294281006 -2.3980000019073486,4.3429999351501465 0,4.3429999351501465 C2.3980000019073486,4.3429999351501465 4.3420000076293945,2.3989999294281006 4.3420000076293945,0.0010000000474974513 C4.340000152587891,-2.3959999084472656 2.3970000743865967,-4.340000152587891 0,-4.3420000076293945z"></path></g></g><g transform="matrix(1,0,0,1,-1.25,2.690155029296875)" opacity="1" style="display: block;"><g opacity="1" transform="matrix(1,0,0,1,278.0740051269531,216.80799865722656)"><path fill="rgb(0,0,0)" fill-opacity="1" d=" M0.0010000000474974513,11.168999671936035 C-6.166999816894531,11.168999671936035 -11.168000221252441,6.169000148773193 -11.168000221252441,0.0010000000474974513 C-11.168000221252441,-6.166999816894531 -6.166999816894531,-11.168999671936035 0.0010000000474974513,-11.168999671936035 C6.169000148773193,-11.168999671936035 11.168999671936035,-6.166999816894531 11.168999671936035,0.0010000000474974513 C11.161999702453613,6.165999889373779 6.165999889373779,11.161999702453613 0.0010000000474974513,11.168999671936035z M0.0010000000474974513,-4.3420000076293945 C-2.3970000743865967,-4.3420000076293945 -4.341000080108643,-2.3970000743865967 -4.341000080108643,0.0010000000474974513 C-4.341000080108643,2.3989999294281006 -2.3970000743865967,4.3429999351501465 0.0010000000474974513,4.3429999351501465 C2.3980000019073486,4.3429999351501465 4.3420000076293945,2.3989999294281006 4.3420000076293945,0.0010000000474974513 C4.3379998207092285,-2.3959999084472656 2.3970000743865967,-4.3379998207092285 0.0010000000474974513,-4.3420000076293945z"></path></g></g></g></svg>