<?xml version="1.0" encoding="UTF-8"?>
<svg width="610px" height="381px" viewBox="0 0 610 381" version="1.1" xmlns="http://www.w3.org/2000/svg" xmlns:xlink="http://www.w3.org/1999/xlink">
  <style>
    @keyframes bug-1-1 {
      50% { transform: translateX(0); }
    }
    #bug-1-1 {
      transform: translateX(40px);
      animation: bug-1-1 4s infinite;
    }

    @keyframes bug-1-2 {
      0% { opacity: 1; }
      25% { transform: translateX(150px); }
      27% { opacity: 1; }
      28% { opacity: 0; }
      95% { opacity: 0; }
      100% { opacity: 1; }
    }
    #bug-1-2 {
      opacity: 0;
      transform: translateX(190px);
      animation: bug-1-2 8s infinite;
    }

    @keyframes bug-1-3 {
      50% { transform: translateX(300px); }
    }
    #bug-1-3 {
      transform: translateX(340px);
      animation: bug-1-3 4s infinite;
    }

    @keyframes bug-1-4 {
      0% { opacity: 1; }
      25% { transform: translateX(450px); }
      50% { transform: translateX(490px); }
      75% { transform: translateX(450px); opacity: 1; }
      80% { opacity: 1; }
      81% { opacity: 0; }
      95% { opacity: 0; }
      100% { opacity: 1; }
    }
    #bug-1-4 {
      opacity: 0;
      transform: translateX(490px);
      animation: bug-1-4 8s infinite;
    }

    @keyframes bug-2-1 {
      50% { transform: translateX(40px); }
    }
    #bug-2-1 {
      transform: translateX(0);
      animation: bug-2-1 4s infinite;
    }

    @keyframes bug-2-2 {
      50% { transform: translateX(190px); }
    }
    #bug-2-2 {
      transform: translateX(150px);
      animation: bug-2-2 4s infinite;
    }

    @keyframes bug-2-3 {
      0% { opacity: 1; }
      25% { transform: translateX(340px); }
      50% { transform: translateX(300px); }
      55% { opacity: 1; }
      56% { opacity: 0; }
      75% { transform: translateX(340px); }
      95% { opacity: 0; }
      100% { opacity: 1; }
    }
    #bug-2-3 {
      opacity: 0;
      transform: translateX(300px);
      animation: bug-2-3 8s infinite;
    }

    @keyframes bug-2-4 {
      50% { transform: translateX(490px); }
    }
    #bug-2-4 {
      transform: translateX(450px);
      animation: bug-2-4 4s infinite;
    }

    @keyframes explosion-1 {
      25% { transform: translate(-100px, 30px) scale(0); }
      30% { transform: translate(-92px, 30px) scale(1.5); opacity: 1; }
      35% { transform: translate(-84px, 30px) scale(1.5); opacity: 0; }
      100% { opacity: 0; }
    }
    #explosion-1 {
      transform: translate(-60px, 30px) scale(0);
      transform-origin: 300px 62px;
      animation: explosion-1 8s infinite;
    }

    @keyframes explosion-2 {
      50% { transform: translate(45px, 200px) scale(0); }
      55% { transform: translate(61px, 200px) scale(1.5); opacity: 1; }
      60% { transform: translate(77px, 200px) scale(1.5); opacity: 0; }
      100% { opacity: 0; }
    }

    #explosion-2 {
      transform: translate(45px, 200px) scale(0);
      transform-origin: 300px 62px;
      animation: explosion-2 8s infinite;
    }

    @keyframes explosion-3 {
      75% { transform: translate(200px, 30px) scale(0); }
      80% { transform: translate(210px, 30px) scale(1.5); opacity: 1; }
      85% { transform: translate(220px, 30px) scale(1.5); opacity: 0; }
      100% { opacity: 0; }
    }
    #explosion-3 {
      transform: translate(230px, 30px) scale(0);
      transform-origin: 300px 62px;
      animation: explosion-3 8s infinite;
    }
  </style>
  <g id="row1" transform="translate(0, 43)">
    <g id="bug-1-1" stroke-width="1" fill="#000000">
      <path d="M52.5,0 C81.4943203,0 105,23.1577027 105,51.7239177 L105,100 L0,100 L0,51.7239177 C0,23.1577027 23.5047537,0 52.5,0 Z M38,46 L29,46 L29,51 L38,51 L38,46 Z M76,46 L67,46 L67,51 L76,51 L76,46 Z" id="Combined-Shape"></path>
    </g>
    <g id="bug-1-2" stroke-width="1" fill="#000000">
      <path d="M29.5733563,4.05138549e-13 L29.5733563,19.8343623 L75.4266437,19.8343623 L75.4266437,4.05138549e-13 L105,4.05138549e-13 L105,98 L0,98 L0,4.05138549e-13 L29.5733563,4.05138549e-13 Z M39,45 L30,45 L30,50 L39,50 L39,45 Z M77,45 L68,45 L68,50 L77,50 L77,45 Z" id="Combined-Shape"></path>
    </g>
    <g id="bug-1-3" stroke-width="1" fill="#000000">
      <path d="M29.5733563,4.05138549e-13 L29.5733563,19.8343623 L75.4266437,19.8343623 L75.4266437,4.05138549e-13 L105,4.05138549e-13 L105,98 L0,98 L0,4.05138549e-13 L29.5733563,4.05138549e-13 Z M39,45 L30,45 L30,50 L39,50 L39,45 Z M77,45 L68,45 L68,50 L77,50 L77,45 Z" id="Combined-Shape"></path>
    </g>
    <g id="bug-1-4" stroke-width="1" fill="#000000">
      <path d="M52.5,0 C81.4943203,0 105,23.1577027 105,51.7239177 L105,100 L0,100 L0,51.7239177 C0,23.1577027 23.5047537,0 52.5,0 Z M38,46 L29,46 L29,51 L38,51 L38,46 Z M76,46 L67,46 L67,51 L76,51 L76,46 Z" id="Combined-Shape"></path>
    </g>
  </g>
  <g id="row2" transform="translate(0, 213)">
    <g id="bug-2-1" stroke-width="1" fill="#000000">
      <path d="M52.5,0 C81.4943203,0 105,23.1577027 105,51.7239177 L105,100 L0,100 L0,51.7239177 C0,23.1577027 23.5047537,0 52.5,0 Z M38,46 L29,46 L29,51 L38,51 L38,46 Z M76,46 L67,46 L67,51 L76,51 L76,46 Z" id="Combined-Shape"></path>
    </g>
    <g id="bug-2-2" stroke-width="1" fill="#000000">
      <path d="M29.5733563,4.05138549e-13 L29.5733563,19.8343623 L75.4266437,19.8343623 L75.4266437,4.05138549e-13 L105,4.05138549e-13 L105,98 L0,98 L0,4.05138549e-13 L29.5733563,4.05138549e-13 Z M39,45 L30,45 L30,50 L39,50 L39,45 Z M77,45 L68,45 L68,50 L77,50 L77,45 Z" id="Combined-Shape"></path>
    </g>
    <g id="bug-2-3" stroke-width="1" fill="#000000">
      <path d="M29.5733563,4.05138549e-13 L29.5733563,19.8343623 L75.4266437,19.8343623 L75.4266437,4.05138549e-13 L105,4.05138549e-13 L105,98 L0,98 L0,4.05138549e-13 L29.5733563,4.05138549e-13 Z M39,45 L30,45 L30,50 L39,50 L39,45 Z M77,45 L68,45 L68,50 L77,50 L77,45 Z" id="Combined-Shape"></path>
    </g>
    <g id="bug-2-4" stroke-width="1" fill="#000000">
      <path d="M52.5,0 C81.4943203,0 105,23.1577027 105,51.7239177 L105,100 L0,100 L0,51.7239177 C0,23.1577027 23.5047537,0 52.5,0 Z M38,46 L29,46 L29,51 L38,51 L38,46 Z M76,46 L67,46 L67,51 L76,51 L76,46 Z" id="Combined-Shape"></path>
    </g>
  </g>
  <g>
    <g id="explosion-1" stroke-width="1" fill="#FFFFFF">
      <polygon points="300.667122 17.0685344 317.279985 0 323.132627 23.0879519 346.053804 16.6128632 339.578715 39.5340394 362.666667 45.3866812 345.598132 61.9995443 362.666667 78.6124075 339.578715 84.4650493 346.053804 107.387137 323.132627 100.911137 317.279985 124 300.667122 106.930554 284.054259 124 278.201617 100.911137 255.27953 107.387137 261.75553 84.4650493 238.666667 78.6124075 255.736112 61.9995443 238.666667 45.3866812 261.75553 39.5340394 255.27953 16.6128632 278.201617 23.0879519 284.054259 0"></polygon>
    </g>
    <g id="explosion-2" stroke-width="1" fill="#FFFFFF">
      <polygon points="300.667122 17.0685344 317.279985 0 323.132627 23.0879519 346.053804 16.6128632 339.578715 39.5340394 362.666667 45.3866812 345.598132 61.9995443 362.666667 78.6124075 339.578715 84.4650493 346.053804 107.387137 323.132627 100.911137 317.279985 124 300.667122 106.930554 284.054259 124 278.201617 100.911137 255.27953 107.387137 261.75553 84.4650493 238.666667 78.6124075 255.736112 61.9995443 238.666667 45.3866812 261.75553 39.5340394 255.27953 16.6128632 278.201617 23.0879519 284.054259 0"></polygon>
    </g>
    <g id="explosion-3" stroke-width="1" fill="#FFFFFF">
      <polygon points="300.667122 17.0685344 317.279985 0 323.132627 23.0879519 346.053804 16.6128632 339.578715 39.5340394 362.666667 45.3866812 345.598132 61.9995443 362.666667 78.6124075 339.578715 84.4650493 346.053804 107.387137 323.132627 100.911137 317.279985 124 300.667122 106.930554 284.054259 124 278.201617 100.911137 255.27953 107.387137 261.75553 84.4650493 238.666667 78.6124075 255.736112 61.9995443 238.666667 45.3866812 261.75553 39.5340394 255.27953 16.6128632 278.201617 23.0879519 284.054259 0"></polygon>
    </g>
  </g>
</svg>
