<svg id="Subank" xmlns="http://www.w3.org/2000/svg" width="398" height="503" viewBox="0 0 398 503">
  <rect id="Rectangle_4" data-name="Rectangle 4" width="398" height="503" rx="30" fill="#fff"/>
  <rect id="Rectangle_58" data-name="Rectangle 58" width="398" height="503" rx="30" fill="#ececec" opacity="0"/>
  <g id="Subank-2" data-name="Subank" transform="translate(-152.493 -1779.568)">
    <g id="Group_2" data-name="Group 2" transform="translate(205.842 1989)">
      <path id="Union_1" data-name="Union 1" d="M0,28.044A28.045,28.045,0,0,1,28.044,0q.394,0,.786.011H84.741S84.845,54.1,30.9,55.946a28.379,28.379,0,0,1-2.854.143A28.045,28.045,0,0,1,0,28.044Z" transform="translate(0 0)" fill="#024dff"/>
      <path id="Union_2" data-name="Union 2" d="M0,28.045A28.045,28.045,0,0,1,28.045,0q.394,0,.786.011H84.741S84.845,54.1,30.9,55.947a28.379,28.379,0,0,1-2.854.143A28.045,28.045,0,0,1,0,28.045Z" transform="translate(84.741 84.135) rotate(180)" fill="#3fe1f7"/>
      <path id="Intersection_1" data-name="Intersection 1" d="M0,21.985C7.626,10.76,20.722.911,43.211.144A28.275,28.275,0,0,1,46.065,0,27.925,27.925,0,0,1,63.478,6.06C55.852,17.284,42.756,27.134,20.267,27.9a28.491,28.491,0,0,1-2.854.143A27.924,27.924,0,0,1,0,21.985Z" transform="translate(10.631 28.045)" fill="#fff"/>
    </g>
    <text id="Su" transform="translate(302.519 2045.189)" font-size="51" font-family="Poppins-SemiBold, Poppins" font-weight="600"><tspan x="0" y="0">Su</tspan></text>
    <text id="Bank" transform="translate(372.577 2045.189)" font-size="51" font-family="Poppins-Light, Poppins" font-weight="300"><tspan x="0" y="0">Bank</tspan></text>
  </g>
</svg>
