<svg id="Logo" xmlns="http://www.w3.org/2000/svg" width="166" height="71" viewBox="0 0 166 71">
  <text id="Glaze" transform="translate(0 54)" font-size="48" font-family="Poppins-SemiBold, Poppins" font-weight="600"><tspan x="0" y="0">Glaze</tspan></text>
  <path id="Polygon_1" data-name="Polygon 1" d="M15.57,2.358a1,1,0,0,1,1.86,0l3.787,9.6a1,1,0,0,0,.525.547l9.2,4.082a1,1,0,0,1,0,1.828l-9.2,4.082a1,1,0,0,0-.525.547l-3.787,9.6a1,1,0,0,1-1.86,0l-3.787-9.6a1,1,0,0,0-.525-.547l-9.2-4.082a1,1,0,0,1,0-1.828l9.2-4.082a1,1,0,0,0,.525-.547Z" transform="translate(133)" fill="#7f2cdb"/>
</svg>
