<svg xmlns="http://www.w3.org/2000/svg" width="451" height="479" viewBox="0 0 451 479">
  <path id="Polygon_2" data-name="Polygon 2" d="M211.544,35.423c4.991-12.669,22.921-12.669,27.912,0l50.315,127.71a15,15,0,0,0,7.864,8.209l122.522,54.451a15,15,0,0,1,0,27.415L297.635,307.658a15,15,0,0,0-7.864,8.209l-50.315,127.71c-4.991,12.669-22.921,12.669-27.912,0l-50.315-127.71a15,15,0,0,0-7.864-8.209L30.843,253.207a15,15,0,0,1,0-27.415l122.522-54.451a15,15,0,0,0,7.864-8.209Z" fill="#d8d8d8" opacity="0.39"/>
</svg>
